<?xml version="1.0" standalone="no"?>
<!DOCTYPE svg PUBLIC "-//W3C//DTD SVG 20010904//EN"
 "http://www.w3.org/TR/2001/REC-SVG-20010904/DTD/svg10.dtd">
<svg version="1.0" xmlns="http://www.w3.org/2000/svg"
 width="458.000000pt" height="458.000000pt" viewBox="0 0 458.000000 458.000000"
 preserveAspectRatio="xMidYMid meet">
<metadata>
Created by potrace 1.14, written by Peter Selinger 2001-2017
</metadata>
<g transform="translate(0.000000,458.000000) scale(0.100000,-0.100000)"
fill="#000000" stroke="none">
<path d="M2247 4187 c-19 -36 -31 -58 -187 -327 -103 -178 -202 -348 -408
-705 -41 -71 -91 -159 -111 -195 -21 -36 -49 -84 -64 -107 -15 -24 -27 -44
-27 -47 0 -2 -32 -59 -72 -127 -39 -68 -119 -205 -176 -304 -57 -99 -116 -200
-130 -225 -14 -25 -81 -142 -150 -260 -69 -118 -136 -235 -150 -260 -14 -25
-56 -99 -95 -165 -74 -128 -95 -163 -128 -222 -12 -21 -88 -153 -169 -293
-257 -443 -280 -484 -275 -488 5 -5 4325 -6 4330 0 2 2 -14 35 -37 73 -22 39
-50 88 -63 110 -12 22 -46 81 -75 130 -29 50 -62 108 -75 130 -44 79 -358 622
-410 710 -29 50 -62 106 -73 126 -23 42 -141 247 -263 456 -49 83 -98 169
-110 190 -12 21 -112 196 -224 388 -111 193 -213 370 -227 395 -14 25 -74 128
-133 230 -166 286 -376 651 -389 674 -38 69 -79 137 -85 141 -4 2 -15 -10 -24
-28z m173 -347 c78 -135 152 -263 165 -285 12 -22 46 -80 75 -130 29 -49 62
-108 75 -130 12 -22 46 -80 75 -130 29 -49 62 -108 75 -130 21 -38 132 -230
523 -905 91 -157 176 -305 190 -330 14 -25 36 -62 49 -82 12 -21 23 -40 23
-44 0 -3 8 -18 18 -32 11 -15 33 -52 49 -82 17 -30 87 -152 155 -270 69 -118
136 -235 150 -260 14 -25 62 -108 107 -184 44 -76 81 -140 81 -141 0 -1 22
-40 50 -86 27 -46 50 -87 50 -91 0 -5 -929 -8 -2064 -8 l-2065 0 47 81 c26 44
55 95 65 112 38 65 448 774 490 847 11 19 35 62 54 95 19 33 38 67 43 75 10
14 162 278 203 350 10 19 87 152 170 295 82 143 183 318 224 389 77 133 242
418 538 931 93 160 182 316 199 347 17 32 34 54 38 50 4 -4 71 -117 148 -252z"/>
</g>
</svg>
